<mxfile host="app.diagrams.net" agent="Mozilla/5.0 (Macintosh; Intel Mac OS X 10_15_7) AppleWebKit/605.1.15 (KHTML, like Gecko) Version/17.6 Safari/605.1.15" version="28.2.5">
  <diagram id="C5RBs43oDa-KdzZeNtuy" name="Page-1">
    <mxGraphModel dx="946" dy="628" grid="1" gridSize="10" guides="1" tooltips="1" connect="1" arrows="1" fold="1" page="1" pageScale="1" pageWidth="827" pageHeight="1169" background="light-dark(#FFFFFF,#4D4D4D)" math="0" shadow="0">
      <root>
        <mxCell id="WIyWlLk6GJQsqaUBKTNV-0" />
        <mxCell id="WIyWlLk6GJQsqaUBKTNV-1" parent="WIyWlLk6GJQsqaUBKTNV-0" />
        <mxCell id="1Nupz_1q4f2JPnDm-iEJ-5" value="" style="edgeStyle=orthogonalEdgeStyle;rounded=0;orthogonalLoop=1;jettySize=auto;html=1;strokeColor=light-dark(#000000,#808080);" edge="1" parent="WIyWlLk6GJQsqaUBKTNV-1" source="WIyWlLk6GJQsqaUBKTNV-3" target="1Nupz_1q4f2JPnDm-iEJ-4">
          <mxGeometry relative="1" as="geometry" />
        </mxCell>
        <mxCell id="WIyWlLk6GJQsqaUBKTNV-3" value="Crear variables con datos obtenidos" style="rounded=1;whiteSpace=wrap;html=1;fontSize=12;glass=0;strokeWidth=1;shadow=0;strokeColor=light-dark(#000000,#808080);" parent="WIyWlLk6GJQsqaUBKTNV-1" vertex="1">
          <mxGeometry x="110.5" y="127" width="103" height="73" as="geometry" />
        </mxCell>
        <mxCell id="WIyWlLk6GJQsqaUBKTNV-8" value="No" style="rounded=0;html=1;jettySize=auto;orthogonalLoop=1;fontSize=11;endArrow=block;endFill=0;endSize=8;strokeWidth=1;shadow=0;labelBackgroundColor=none;edgeStyle=orthogonalEdgeStyle;strokeColor=light-dark(#000000,#808080);" parent="WIyWlLk6GJQsqaUBKTNV-1" source="WIyWlLk6GJQsqaUBKTNV-10" target="WIyWlLk6GJQsqaUBKTNV-11" edge="1">
          <mxGeometry x="0.3333" y="20" relative="1" as="geometry">
            <mxPoint as="offset" />
          </mxGeometry>
        </mxCell>
        <mxCell id="1Nupz_1q4f2JPnDm-iEJ-17" style="edgeStyle=orthogonalEdgeStyle;rounded=0;orthogonalLoop=1;jettySize=auto;html=1;exitX=1;exitY=0.5;exitDx=0;exitDy=0;entryX=0;entryY=0.5;entryDx=0;entryDy=0;strokeColor=light-dark(#000000,#808080);" edge="1" parent="WIyWlLk6GJQsqaUBKTNV-1" source="WIyWlLk6GJQsqaUBKTNV-10" target="1Nupz_1q4f2JPnDm-iEJ-11">
          <mxGeometry relative="1" as="geometry" />
        </mxCell>
        <mxCell id="1Nupz_1q4f2JPnDm-iEJ-18" style="edgeStyle=orthogonalEdgeStyle;rounded=0;orthogonalLoop=1;jettySize=auto;html=1;entryX=0;entryY=0.5;entryDx=0;entryDy=0;strokeColor=light-dark(#000000,#808080);" edge="1" parent="WIyWlLk6GJQsqaUBKTNV-1" source="WIyWlLk6GJQsqaUBKTNV-10" target="1Nupz_1q4f2JPnDm-iEJ-13">
          <mxGeometry relative="1" as="geometry" />
        </mxCell>
        <mxCell id="1Nupz_1q4f2JPnDm-iEJ-19" style="edgeStyle=orthogonalEdgeStyle;rounded=0;orthogonalLoop=1;jettySize=auto;html=1;entryX=0;entryY=0.5;entryDx=0;entryDy=0;strokeColor=light-dark(#000000,#808080);" edge="1" parent="WIyWlLk6GJQsqaUBKTNV-1" source="WIyWlLk6GJQsqaUBKTNV-10" target="1Nupz_1q4f2JPnDm-iEJ-14">
          <mxGeometry relative="1" as="geometry" />
        </mxCell>
        <mxCell id="1Nupz_1q4f2JPnDm-iEJ-20" style="edgeStyle=orthogonalEdgeStyle;rounded=0;orthogonalLoop=1;jettySize=auto;html=1;entryX=0;entryY=0.75;entryDx=0;entryDy=0;strokeColor=light-dark(#000000,#808080);" edge="1" parent="WIyWlLk6GJQsqaUBKTNV-1" source="WIyWlLk6GJQsqaUBKTNV-10" target="1Nupz_1q4f2JPnDm-iEJ-10">
          <mxGeometry relative="1" as="geometry" />
        </mxCell>
        <mxCell id="1Nupz_1q4f2JPnDm-iEJ-21" style="edgeStyle=orthogonalEdgeStyle;rounded=0;orthogonalLoop=1;jettySize=auto;html=1;entryX=0;entryY=0.75;entryDx=0;entryDy=0;strokeColor=light-dark(#000000,#808080);" edge="1" parent="WIyWlLk6GJQsqaUBKTNV-1" source="WIyWlLk6GJQsqaUBKTNV-10" target="WIyWlLk6GJQsqaUBKTNV-12">
          <mxGeometry relative="1" as="geometry" />
        </mxCell>
        <mxCell id="WIyWlLk6GJQsqaUBKTNV-10" value="Opciones" style="rhombus;whiteSpace=wrap;html=1;shadow=0;fontFamily=Helvetica;fontSize=12;align=center;strokeWidth=1;spacing=6;spacingTop=-4;strokeColor=light-dark(#000000,#808080);" parent="WIyWlLk6GJQsqaUBKTNV-1" vertex="1">
          <mxGeometry x="111.5" y="345" width="100" height="80" as="geometry" />
        </mxCell>
        <mxCell id="1Nupz_1q4f2JPnDm-iEJ-25" value="" style="edgeStyle=orthogonalEdgeStyle;rounded=0;orthogonalLoop=1;jettySize=auto;html=1;strokeColor=light-dark(#000000,#808080);" edge="1" parent="WIyWlLk6GJQsqaUBKTNV-1" source="WIyWlLk6GJQsqaUBKTNV-11" target="1Nupz_1q4f2JPnDm-iEJ-24">
          <mxGeometry relative="1" as="geometry" />
        </mxCell>
        <mxCell id="WIyWlLk6GJQsqaUBKTNV-11" value="6.Salir" style="rounded=1;whiteSpace=wrap;html=1;fontSize=12;glass=0;strokeWidth=1;shadow=0;strokeColor=light-dark(#000000,#808080);" parent="WIyWlLk6GJQsqaUBKTNV-1" vertex="1">
          <mxGeometry x="113" y="552" width="98" height="50" as="geometry" />
        </mxCell>
        <mxCell id="WIyWlLk6GJQsqaUBKTNV-12" value="5. Sugerencias y mejoras con Copilot" style="rounded=1;whiteSpace=wrap;html=1;fontSize=12;glass=0;strokeWidth=1;shadow=0;strokeColor=light-dark(#000000,#808080);" parent="WIyWlLk6GJQsqaUBKTNV-1" vertex="1">
          <mxGeometry x="352" y="537" width="128" height="40" as="geometry" />
        </mxCell>
        <mxCell id="1Nupz_1q4f2JPnDm-iEJ-2" value="" style="edgeStyle=orthogonalEdgeStyle;rounded=0;orthogonalLoop=1;jettySize=auto;html=1;strokeColor=light-dark(#000000,#808080);" edge="1" parent="WIyWlLk6GJQsqaUBKTNV-1" source="1Nupz_1q4f2JPnDm-iEJ-0" target="WIyWlLk6GJQsqaUBKTNV-3">
          <mxGeometry relative="1" as="geometry" />
        </mxCell>
        <mxCell id="1Nupz_1q4f2JPnDm-iEJ-0" value="Inicio" style="ellipse;whiteSpace=wrap;html=1;strokeColor=light-dark(#000000,#808080);" vertex="1" parent="WIyWlLk6GJQsqaUBKTNV-1">
          <mxGeometry x="132" y="37" width="60" height="60" as="geometry" />
        </mxCell>
        <mxCell id="1Nupz_1q4f2JPnDm-iEJ-7" value="" style="edgeStyle=orthogonalEdgeStyle;rounded=0;orthogonalLoop=1;jettySize=auto;html=1;strokeColor=light-dark(#000000,#808080);" edge="1" parent="WIyWlLk6GJQsqaUBKTNV-1" source="1Nupz_1q4f2JPnDm-iEJ-4" target="WIyWlLk6GJQsqaUBKTNV-10">
          <mxGeometry relative="1" as="geometry" />
        </mxCell>
        <mxCell id="1Nupz_1q4f2JPnDm-iEJ-4" value="Mostrar Menu Principal" style="rounded=1;whiteSpace=wrap;html=1;strokeColor=light-dark(#000000,#808080);" vertex="1" parent="WIyWlLk6GJQsqaUBKTNV-1">
          <mxGeometry x="110.5" y="230" width="103" height="70" as="geometry" />
        </mxCell>
        <mxCell id="1Nupz_1q4f2JPnDm-iEJ-10" value="4. Ver información del programa" style="rounded=1;whiteSpace=wrap;html=1;fontSize=12;glass=0;strokeWidth=1;shadow=0;strokeColor=light-dark(#000000,#808080);" vertex="1" parent="WIyWlLk6GJQsqaUBKTNV-1">
          <mxGeometry x="352" y="483" width="128" height="40" as="geometry" />
        </mxCell>
        <mxCell id="1Nupz_1q4f2JPnDm-iEJ-11" value="1. Descripción: Tema, Fuente, Problema y Solución" style="rounded=1;whiteSpace=wrap;html=1;fontSize=12;glass=0;strokeWidth=1;shadow=0;strokeColor=light-dark(#000000,#808080);" vertex="1" parent="WIyWlLk6GJQsqaUBKTNV-1">
          <mxGeometry x="350" y="300" width="130" height="53" as="geometry" />
        </mxCell>
        <mxCell id="1Nupz_1q4f2JPnDm-iEJ-26" value="" style="edgeStyle=orthogonalEdgeStyle;rounded=0;orthogonalLoop=1;jettySize=auto;html=1;strokeColor=light-dark(#000000,#808080);" edge="1" parent="WIyWlLk6GJQsqaUBKTNV-1" source="1Nupz_1q4f2JPnDm-iEJ-13" target="1Nupz_1q4f2JPnDm-iEJ-23">
          <mxGeometry relative="1" as="geometry" />
        </mxCell>
        <mxCell id="1Nupz_1q4f2JPnDm-iEJ-13" value="2. Ver tablas de referencia" style="rounded=1;whiteSpace=wrap;html=1;fontSize=12;glass=0;strokeWidth=1;shadow=0;strokeColor=light-dark(#000000,#808080);" vertex="1" parent="WIyWlLk6GJQsqaUBKTNV-1">
          <mxGeometry x="350" y="364" width="130" height="43" as="geometry" />
        </mxCell>
        <mxCell id="1Nupz_1q4f2JPnDm-iEJ-14" value="3. Ver estructura de tablas (columnas, tipo, escala)" style="rounded=1;whiteSpace=wrap;html=1;fontSize=12;glass=0;strokeWidth=1;shadow=0;strokeColor=light-dark(#000000,#808080);" vertex="1" parent="WIyWlLk6GJQsqaUBKTNV-1">
          <mxGeometry x="352" y="419" width="128" height="50" as="geometry" />
        </mxCell>
        <mxCell id="1Nupz_1q4f2JPnDm-iEJ-22" value="imprime" style="text;html=1;align=center;verticalAlign=middle;resizable=0;points=[];autosize=1;strokeColor=none;fillColor=none;" vertex="1" parent="WIyWlLk6GJQsqaUBKTNV-1">
          <mxGeometry x="214" y="353" width="70" height="30" as="geometry" />
        </mxCell>
        <mxCell id="1Nupz_1q4f2JPnDm-iEJ-37" style="edgeStyle=orthogonalEdgeStyle;rounded=0;orthogonalLoop=1;jettySize=auto;html=1;exitX=1;exitY=0;exitDx=0;exitDy=0;entryX=0;entryY=0.5;entryDx=0;entryDy=0;strokeColor=light-dark(#000000,#808080);" edge="1" parent="WIyWlLk6GJQsqaUBKTNV-1" source="1Nupz_1q4f2JPnDm-iEJ-23" target="1Nupz_1q4f2JPnDm-iEJ-28">
          <mxGeometry relative="1" as="geometry">
            <Array as="points">
              <mxPoint x="608" y="345" />
            </Array>
          </mxGeometry>
        </mxCell>
        <mxCell id="1Nupz_1q4f2JPnDm-iEJ-39" style="edgeStyle=orthogonalEdgeStyle;rounded=0;orthogonalLoop=1;jettySize=auto;html=1;exitX=0.5;exitY=0;exitDx=0;exitDy=0;entryX=0;entryY=0.75;entryDx=0;entryDy=0;strokeColor=light-dark(#000000,#808080);" edge="1" parent="WIyWlLk6GJQsqaUBKTNV-1" source="1Nupz_1q4f2JPnDm-iEJ-23" target="1Nupz_1q4f2JPnDm-iEJ-27">
          <mxGeometry relative="1" as="geometry" />
        </mxCell>
        <mxCell id="1Nupz_1q4f2JPnDm-iEJ-41" style="edgeStyle=orthogonalEdgeStyle;rounded=0;orthogonalLoop=1;jettySize=auto;html=1;exitX=1;exitY=0.5;exitDx=0;exitDy=0;entryX=0;entryY=0.5;entryDx=0;entryDy=0;strokeColor=light-dark(#000000,#808080);" edge="1" parent="WIyWlLk6GJQsqaUBKTNV-1" source="1Nupz_1q4f2JPnDm-iEJ-23" target="1Nupz_1q4f2JPnDm-iEJ-29">
          <mxGeometry relative="1" as="geometry" />
        </mxCell>
        <mxCell id="1Nupz_1q4f2JPnDm-iEJ-42" style="edgeStyle=orthogonalEdgeStyle;rounded=0;orthogonalLoop=1;jettySize=auto;html=1;exitX=1;exitY=1;exitDx=0;exitDy=0;entryX=0;entryY=0.5;entryDx=0;entryDy=0;strokeColor=light-dark(#000000,#808080);" edge="1" parent="WIyWlLk6GJQsqaUBKTNV-1" source="1Nupz_1q4f2JPnDm-iEJ-23" target="1Nupz_1q4f2JPnDm-iEJ-30">
          <mxGeometry relative="1" as="geometry">
            <Array as="points">
              <mxPoint x="608" y="422" />
            </Array>
          </mxGeometry>
        </mxCell>
        <mxCell id="1Nupz_1q4f2JPnDm-iEJ-43" style="edgeStyle=orthogonalEdgeStyle;rounded=0;orthogonalLoop=1;jettySize=auto;html=1;entryX=0;entryY=0.5;entryDx=0;entryDy=0;strokeColor=light-dark(#000000,#808080);" edge="1" parent="WIyWlLk6GJQsqaUBKTNV-1" source="1Nupz_1q4f2JPnDm-iEJ-23" target="1Nupz_1q4f2JPnDm-iEJ-31">
          <mxGeometry relative="1" as="geometry">
            <Array as="points">
              <mxPoint x="583" y="465" />
            </Array>
          </mxGeometry>
        </mxCell>
        <mxCell id="1Nupz_1q4f2JPnDm-iEJ-44" style="edgeStyle=orthogonalEdgeStyle;rounded=0;orthogonalLoop=1;jettySize=auto;html=1;exitX=0;exitY=1;exitDx=0;exitDy=0;entryX=0;entryY=0.5;entryDx=0;entryDy=0;strokeColor=light-dark(#000000,#808080);" edge="1" parent="WIyWlLk6GJQsqaUBKTNV-1" source="1Nupz_1q4f2JPnDm-iEJ-23" target="1Nupz_1q4f2JPnDm-iEJ-32">
          <mxGeometry relative="1" as="geometry">
            <Array as="points">
              <mxPoint x="553" y="406" />
              <mxPoint x="553" y="522" />
            </Array>
          </mxGeometry>
        </mxCell>
        <mxCell id="1Nupz_1q4f2JPnDm-iEJ-23" value="Opciones" style="rhombus;whiteSpace=wrap;html=1;shadow=0;fontFamily=Helvetica;fontSize=12;align=center;strokeWidth=1;spacing=6;spacingTop=-4;strokeColor=light-dark(#000000,#808080);" vertex="1" parent="WIyWlLk6GJQsqaUBKTNV-1">
          <mxGeometry x="533" y="345.5" width="100" height="80" as="geometry" />
        </mxCell>
        <mxCell id="1Nupz_1q4f2JPnDm-iEJ-24" value="Fin" style="ellipse;whiteSpace=wrap;html=1;strokeColor=light-dark(#000000,#808080);" vertex="1" parent="WIyWlLk6GJQsqaUBKTNV-1">
          <mxGeometry x="132" y="624" width="60" height="60" as="geometry" />
        </mxCell>
        <mxCell id="1Nupz_1q4f2JPnDm-iEJ-27" value="1.Clientes" style="rounded=1;whiteSpace=wrap;html=1;fontSize=12;glass=0;strokeWidth=1;shadow=0;strokeColor=light-dark(#000000,#808080);" vertex="1" parent="WIyWlLk6GJQsqaUBKTNV-1">
          <mxGeometry x="653" y="287" width="85" height="30" as="geometry" />
        </mxCell>
        <mxCell id="1Nupz_1q4f2JPnDm-iEJ-28" value="2.Productos" style="rounded=1;whiteSpace=wrap;html=1;fontSize=12;glass=0;strokeWidth=1;shadow=0;strokeColor=light-dark(#000000,#808080);" vertex="1" parent="WIyWlLk6GJQsqaUBKTNV-1">
          <mxGeometry x="655" y="330" width="85" height="30" as="geometry" />
        </mxCell>
        <mxCell id="1Nupz_1q4f2JPnDm-iEJ-29" value="3.Ventas" style="rounded=1;whiteSpace=wrap;html=1;fontSize=12;glass=0;strokeWidth=1;shadow=0;strokeColor=light-dark(#000000,#808080);" vertex="1" parent="WIyWlLk6GJQsqaUBKTNV-1">
          <mxGeometry x="655" y="370" width="85" height="30" as="geometry" />
        </mxCell>
        <mxCell id="1Nupz_1q4f2JPnDm-iEJ-30" value="4.Detalle Ventas" style="rounded=1;whiteSpace=wrap;html=1;fontSize=12;glass=0;strokeWidth=1;shadow=0;strokeColor=light-dark(#000000,#808080);" vertex="1" parent="WIyWlLk6GJQsqaUBKTNV-1">
          <mxGeometry x="655" y="407" width="85" height="30" as="geometry" />
        </mxCell>
        <mxCell id="1Nupz_1q4f2JPnDm-iEJ-31" value="5.Todas" style="rounded=1;whiteSpace=wrap;html=1;fontSize=12;glass=0;strokeWidth=1;shadow=0;strokeColor=light-dark(#000000,#808080);" vertex="1" parent="WIyWlLk6GJQsqaUBKTNV-1">
          <mxGeometry x="654" y="450" width="85" height="30" as="geometry" />
        </mxCell>
        <mxCell id="1Nupz_1q4f2JPnDm-iEJ-32" value="6.volver" style="rounded=1;whiteSpace=wrap;html=1;fontSize=12;glass=0;strokeWidth=1;shadow=0;strokeColor=light-dark(#000000,#808080);" vertex="1" parent="WIyWlLk6GJQsqaUBKTNV-1">
          <mxGeometry x="655" y="507" width="85" height="30" as="geometry" />
        </mxCell>
        <mxCell id="1Nupz_1q4f2JPnDm-iEJ-34" style="edgeStyle=orthogonalEdgeStyle;rounded=0;orthogonalLoop=1;jettySize=auto;html=1;entryX=1;entryY=1;entryDx=0;entryDy=0;strokeColor=light-dark(#000000,#808080);" edge="1" parent="WIyWlLk6GJQsqaUBKTNV-1" target="WIyWlLk6GJQsqaUBKTNV-10">
          <mxGeometry relative="1" as="geometry">
            <mxPoint x="698" y="537" as="sourcePoint" />
            <mxPoint x="217" y="378" as="targetPoint" />
            <Array as="points">
              <mxPoint x="698" y="610" />
              <mxPoint x="243" y="610" />
              <mxPoint x="243" y="405" />
            </Array>
          </mxGeometry>
        </mxCell>
      </root>
    </mxGraphModel>
  </diagram>
</mxfile>
